<?xml version="1.0" encoding="utf-8"?>
<!-- Svg Vector Icons : http://www.onlinewebfonts.com/icon -->
<!DOCTYPE svg PUBLIC "-//W3C//DTD SVG 1.1//EN" "http://www.w3.org/Graphics/SVG/1.1/DTD/svg11.dtd">
<svg version="1.1" xmlns="http://www.w3.org/2000/svg" xmlns:xlink="http://www.w3.org/1999/xlink" x="0px" y="0px" viewBox="0 0 1000 1000" enable-background="new 0 0 1000 1000" xml:space="preserve">
<metadata> Svg Vector Icons : http://www.onlinewebfonts.com/icon </metadata>
<g><path d="M10.6,760.4"/><path d="M500,38.1c62.4,0,122.9,12.2,179.8,36.3c55,23.3,104.4,56.6,146.8,99c42.4,42.4,75.7,91.8,99,146.8c24.1,56.9,36.3,117.4,36.3,179.8c0,62.4-12.2,122.9-36.3,179.8c-23.3,55-56.6,104.4-99,146.8c-42.4,42.4-91.8,75.7-146.8,99c-56.9,24.1-117.4,36.3-179.8,36.3c-62.4,0-122.8-12.2-179.8-36.3c-55-23.3-104.4-56.6-146.8-99c-42.4-42.4-75.7-91.8-99-146.8C50.3,622.9,38.1,562.4,38.1,500c0-62.4,12.2-122.8,36.3-179.8c23.3-55,56.6-104.4,99-146.8c42.4-42.4,91.8-75.7,146.8-99C377.2,50.3,437.6,38.1,500,38.1 M500,10C229.4,10,10,229.4,10,500c0,270.6,219.4,490,490,490c270.6,0,490-219.4,490-490C990,229.4,770.6,10,500,10L500,10L500,10z M444.3,564.5c22.2,22.3,53.4,42,53.4,42s39.4,29.1,68.4,11.5c62.1-38,60.6-51.3,91-34.1c106.3,59.5,101.9,99,99.3,108.7c-10.6,38.2-80.2,69.2-156.1,50.2c-76.3-19-152.6-59.2-214.1-120.2C325.2,561.2,285,484.9,266,408.5c-18.9-75.9,12-145.4,50.3-156.1c9.8-2.7,49.2-7.1,108.8,99.1c17,30.6,3.9,29.1-34.1,91.2c-17.8,29,11.3,68.4,11.3,68.4S422.1,542.3,444.3,564.5L444.3,564.5L444.3,564.5z"/></g>
</svg>