<svg width="18" height="14" viewBox="0 0 18 14" fill="none" xmlns="http://www.w3.org/2000/svg">
<path fill-rule="evenodd" clip-rule="evenodd" d="M17.1732 2.97211C17.1732 2.69401 17.0666 2.41575 16.8747 2.21554L15.4248 0.70245C15.2329 0.502074 14.9664 0.3909 14.6998 0.3909C14.4333 0.3909 14.1668 0.502074 13.9748 0.70245L6.98118 8.01236L3.84678 4.73002C3.65488 4.52981 3.38835 4.41847 3.12182 4.41847C2.85527 4.41847 2.58874 4.52981 2.39684 4.73002L0.946928 6.2433C0.755009 6.44351 0.648438 6.72158 0.648438 6.99986C0.648438 7.27794 0.755009 7.55603 0.946928 7.75641L4.80628 11.784L6.25619 13.2973C6.44811 13.4975 6.71464 13.6088 6.98118 13.6088C7.24771 13.6088 7.51418 13.4975 7.70608 13.2973L9.15605 11.784L16.8747 3.72865C17.0666 3.52846 17.1732 3.25037 17.1732 2.97211Z" fill="white"/>
</svg>
